<svg
   inkscape:version="1.1.1 (3bf5ae0d25, 2021-09-20)"
   id="svg8"
   version="1.1"
   viewBox="0 0 16.933333 16.933334"
   height="32"
   width="32"
   sodipodi:docname="img.svg"
   xmlns:inkscape="http://www.inkscape.org/namespaces/inkscape"
   xmlns:sodipodi="http://sodipodi.sourceforge.net/DTD/sodipodi-0.dtd"
   xmlns="http://www.w3.org/2000/svg"
   xmlns:svg="http://www.w3.org/2000/svg"
   xmlns:rdf="http://www.w3.org/1999/02/22-rdf-syntax-ns#"
   xmlns:cc="http://creativecommons.org/ns#"
   xmlns:dc="http://purl.org/dc/elements/1.1/">
  <defs
     id="defs2">
    <inkscape:path-effect
       effect="simplify"
       id="path-effect7756"
       is_visible="true"
       lpeversion="1"
       steps="1"
       threshold="0.0362"
       smooth_angles="0"
       helper_size="5"
       simplify_individual_paths="false"
       simplify_just_coalesce="false" />
    <inkscape:path-effect
       effect="copy_rotate"
       starting_point="0,0"
       origin="8.93,9.32"
       id="path-effect4792"
       is_visible="true"
       lpeversion="1"
       method="normal"
       num_copies="4"
       starting_angle="0"
       rotation_angle="45"
       gap="0.79"
       copies_to_360="true"
       mirror_copies="true"
       split_items="false" />
    <inkscape:path-effect
       effect="knot"
       id="path-effect4790"
       is_visible="true"
       lpeversion="1"
       switcher_size="15"
       interruption_width="3"
       prop_to_stroke_width="true"
       add_stroke_width="inkscape_1.0_and_up"
       both="false"
       inverse_width="false"
       add_other_stroke_width="inkscape_1.0_and_up"
       crossing_points_vector="" />
    <filter
       style="color-interpolation-filters:sRGB;"
       inkscape:label="Blur"
       id="filter9914"
       x="-0.23915921"
       y="-0.24089394"
       width="1.4783184"
       height="1.4817879">
      <feGaussianBlur
         stdDeviation="2 2"
         result="blur"
         id="feGaussianBlur9912" />
    </filter>
    <filter
       style="color-interpolation-filters:sRGB;"
       inkscape:label="Blur"
       id="filter10161"
       x="-0.18018916"
       y="-0.17987265"
       width="1.3603783"
       height="1.3597453">
      <feGaussianBlur
         stdDeviation="2 2"
         result="blur"
         id="feGaussianBlur10159" />
    </filter>
    <filter
       style="color-interpolation-filters:sRGB;"
       inkscape:label="Blur"
       id="filter10638"
       x="-0.1788386"
       y="-0.17916454"
       width="1.3576772"
       height="1.3583291">
      <feGaussianBlur
         stdDeviation="2 2"
         result="blur"
         id="feGaussianBlur10636" />
    </filter>
    <filter
       style="color-interpolation-filters:sRGB;"
       inkscape:label="Blur"
       id="filter10881"
       x="-0.24143826"
       y="-0.23969571"
       width="1.4828765"
       height="1.4793914">
      <feGaussianBlur
         stdDeviation="2 2"
         result="blur"
         id="feGaussianBlur10879" />
    </filter>
  </defs>
  <sodipodi:namedview
     units="px"
     inkscape:showpageshadow="false"
     showgrid="false"
     inkscape:document-rotation="0"
     inkscape:current-layer="layer1"
     inkscape:document-units="px"
     inkscape:cy="26.705908"
     inkscape:cx="37.880721"
     inkscape:zoom="7.9195959"
     inkscape:pageshadow="2"
     inkscape:pageopacity="0"
     borderopacity="1.0"
     bordercolor="#666666"
     pagecolor="#232323"
     id="base"
     inkscape:pagecheckerboard="0"
     inkscape:window-width="1920"
     inkscape:window-height="1017"
     inkscape:window-x="-8"
     inkscape:window-y="-8"
     inkscape:window-maximized="1"
     inkscape:snap-global="false" />
  <metadata
     id="metadata5">
    <rdf:RDF>
      <cc:Work
         rdf:about="">
        <dc:format>image/svg+xml</dc:format>
        <dc:type
           rdf:resource="http://purl.org/dc/dcmitype/StillImage" />
      </cc:Work>
    </rdf:RDF>
  </metadata>
  <g
     id="layer1"
     inkscape:groupmode="layer"
     inkscape:label="Layer 1">
    <rect
       style="fill:#2b2b2b;fill-opacity:1;stroke:none;stroke-width:2.64583;stroke-linecap:round;stroke-linejoin:bevel"
       id="rect844"
       width="16.933332"
       height="16.933332"
       x="0"
       y="0" />
    <path
       id="path11221"
       style="fill:#180528;fill-opacity:1;stroke-width:0.529167;stroke-linecap:round"
       d="m 12.165634,12.098816 h -1.391761 v 3.868352 h 5.260113 v -5.298037 h -3.868352 c 0,0.476562 0,0.953123 0,1.429685 z"
       sodipodi:nodetypes="ccccccc" />
    <path
       id="path11223"
       style="fill:#180528;fill-opacity:1;stroke-width:0.529167;stroke-linecap:round"
       d="m 2.4560656,15.546346 c 2.36718,0 4.73436,0 7.1015397,0 0,-0.741736 0,-1.483473 0,-2.22521 -1.6254434,0 -3.250887,0 -4.8763304,0 3e-7,-1.62116 0,-3.24232 0,-4.8634808 -0.7417362,0 -1.4834728,0 -2.2252093,0 0,2.3628968 0,4.7257938 0,7.0886908 z" />
    <path
       id="path11225"
       style="fill:#180528;fill-opacity:1;stroke-width:0.529167;stroke-linecap:round"
       d="m 8.5649224,4.6144576 c 1.6076776,3e-7 3.2153546,0 4.8230316,0 0,1.6118018 0,3.2236033 0,4.8354051 0.741737,0 1.483474,0 2.22521,0 0,-2.3535383 0,-4.7070764 0,-7.0606144 -2.349414,0 -4.698828,0 -7.0482416,0 0,0.7417364 0,1.4834731 0,2.2252093 z" />
    <path
       id="path11227"
       style="fill:#180528;fill-opacity:1;stroke-width:0.529167;stroke-linecap:round"
       d="M 2.035244,7.240445 H 5.9035957 V 5.8367784 H 7.3451874 V 1.9684266 H 2.035244 c 0,1.7573395 0,3.5146789 0,5.2720184 z"
       sodipodi:nodetypes="ccccccc" />
    <path
       id="path4807"
       style="fill:#701ac1;fill-opacity:1;stroke-width:0.529167;stroke-linecap:round"
       d="m 11.597686,11.597686 h -1.391761 v 3.868352 h 5.260113 v -5.298037 h -3.868352 c 0,0.476562 0,0.953123 0,1.429685 z"
       sodipodi:nodetypes="ccccccc" />
    <path
       id="path4805"
       style="fill:#701ac1;fill-opacity:1;stroke-width:0.529167;stroke-linecap:round"
       d="m 1.8881179,15.045216 c 2.36718,0 4.7343599,0 7.1015397,0 0,-0.741736 0,-1.483473 0,-2.22521 -1.6254434,0 -3.250887,0 -4.8763304,0 3e-7,-1.62116 0,-3.2423206 0,-4.8634812 -0.7417362,0 -1.4834729,0 -2.2252093,0 0,2.3628972 0,4.7257942 0,7.0886912 z" />
    <path
       id="path4803"
       style="fill:#701ac1;fill-opacity:1;stroke-width:0.529167;stroke-linecap:round"
       d="m 7.9969746,4.1133272 c 1.6076772,3e-7 3.2153544,0 4.8230314,0 0,1.6118018 0,3.2236033 0,4.8354051 0.741737,0 1.483474,0 2.22521,0 0,-2.3535383 0,-4.7070764 0,-7.0606144 -2.349414,0 -4.698828,0 -7.0482414,0 0,0.7417364 0,1.4834731 0,2.2252093 z" />
    <path
       id="rect1720"
       style="fill:#701ac1;fill-opacity:1;stroke-width:0.529167;stroke-linecap:round"
       d="M 1.4672962,6.7393146 H 5.335648 V 5.335648 H 6.7772397 V 1.4672962 H 1.4672962 c 0,1.7573395 0,3.5146789 0,5.2720184 z"
       sodipodi:nodetypes="ccccccc" />
  </g>
</svg>
